<svg width="200px" height="81px" viewBox="0 -1 200 81" version="1.1" xmlns="http://www.w3.org/2000/svg" xmlns:xlink="http://www.w3.org/1999/xlink">
    <!-- Generator: Sketch 39 (31667) - http://www.bohemiancoding.com/sketch -->
    <desc>Created with Sketch.</desc>
    <defs>
        <polygon id="path-1" points="9.524 56.82275 9.524 0.07775 0.3124 0.07775 0.3124 56.82275 9.524 56.82275"></polygon>
        <polygon id="path-3" points="0.26415 58.5 24.58565 58.5 24.58565 0.4061 0.26415 0.4061"></polygon>
        <polygon id="path-5" points="0 0.39575 0 61.53475 25.4809 61.53475 25.4809 0.39575 6.77626358e-21 0.39575"></polygon>
    </defs>
    <g id="Group" stroke="none" stroke-width="1" fill="none" fill-rule="evenodd">
        <path d="M95.27535,61.1476 L119.77935,61.1476 L95.27535,61.1476 Z" id="Fill-1" fill="#FEFEFE"></path>
        <polygon id="Fill-2" fill="#020302" points="95.2755 61.6475 119.7795 61.6475 119.7795 60.6475 95.2755 60.6475"></polygon>
        <polygon id="Fill-3" fill="#020302" points="61.15005 -0.0002 47.39105 34.3358 48.31905 34.7078 61.82705 0.9998 64.00955 0.9998 69.92605 0.9998 72.44655 0.9998 72.44655 -0.0002"></polygon>
        <polygon id="Fill-4" fill="#020302" points="72.6284 20.75205 71.5509 20.75205 87.8074 61.32505 88.7364 60.95255"></polygon>
        <path d="M122.53125,23.534 L130.38675,25.0475" id="Fill-5" fill="#FEFEFE"></path>
        <polygon id="Fill-6" fill="#020302" points="130.292 25.53865 122.4365 24.02515 122.626 23.04315 130.4815 24.55665"></polygon>
        <path d="M133.2744,54.0384 L132.3174,53.7479 C132.9199,51.7639 133.9794,50.0499 135.5554,48.5089 C137.2844,46.8189 139.2259,45.3869 141.3279,44.2529 C143.3964,43.1369 146.6339,41.4979 150.9514,39.3819 C156.1259,36.9549 160.0654,34.1614 162.6669,31.0754 C165.2369,28.0274 166.5399,24.0539 166.5399,19.2644 C166.3924,14.7409 164.5164,10.3224 161.3934,7.1589 C158.8224,4.5539 153.9999,1.4484 145.6269,1.4484 L145.6269,0.4484 C154.3454,0.4484 159.4004,3.7154 162.1054,6.4559 C165.4034,9.7974 167.3839,14.4594 167.5394,19.2479 C167.5399,24.2964 166.1574,28.4869 163.4314,31.7199 C160.7364,34.9169 156.6824,37.7984 151.3834,40.2834 C147.0859,42.3899 143.8599,44.0229 141.8034,45.1329 C139.7834,46.2224 137.9159,47.5989 136.2544,49.2239 C134.8019,50.6444 133.8269,52.2194 133.2744,54.0384" id="Fill-7" fill="#020302"></path>
        <path d="M128.0908,61.14755 L167.0393,61.53805" id="Fill-9" fill="#FEFEFE"></path>
        <polygon id="Fill-11" fill="#020302" points="167.03465 62.03815 128.08615 61.64765 128.09565 60.64765 167.04515 61.03815"></polygon>
        <g id="Group-15" transform="translate(190.000000, 14.604000)">
            <mask id="mask-2" fill="white">
                <use xlink:href="#path-1"></use>
            </mask>
            <g id="Clip-14"></g>
            <polygon id="Fill-13" fill="#020302" mask="url(#mask-2)" points="8.5244 0.07775 8.5244 55.82275 1.3124 55.82275 1.3124 38.91425 0.3124 38.91425 0.3124 56.82275 9.5244 56.82275 9.5244 0.07775"></polygon>
        </g>
        <polygon id="Fill-16" fill="#020302" points="58.37645 51.03965 49.93945 51.03965 29.68445 0.49965 38.12145 0.49965"></polygon>
        <polygon id="Fill-18" fill="#020302" points="83.6255 78.5294 75.1885 78.5294 98.374 20.5104 106.811 20.5104"></polygon>
        <polygon id="Fill-20" fill="#020302" points="177.76415 56.1827 194.41415 14.6872 185.97715 14.6872 169.32715 56.1827"></polygon>
        <path d="M145.62695,8.44855 C138.12795,8.44855 132.03095,14.71655 129.99395,24.46305 L122.62595,23.04305 L122.43645,24.02505 L130.78345,25.63355 L130.87795,25.14255 C132.71495,15.60855 138.50445,9.44855 145.62695,9.44855 L145.62695,8.44855 Z" id="Fill-22" fill="#020302"></path>
        <g id="Group-26" transform="translate(111.000000, 20.104000)">
            <mask id="mask-4" fill="white">
                <use xlink:href="#path-3"></use>
            </mask>
            <g id="Clip-25"></g>
            <polygon id="Fill-24" fill="#020302" mask="url(#mask-4)" points="15.41015 58.5001 24.58565 58.5001 1.34115 0.4061 0.26415 0.4061 23.10815 57.5001 15.41015 57.5001"></polygon>
        </g>
        <g id="Group-29" transform="translate(0.000000, 0.104000)">
            <mask id="mask-6" fill="white">
                <use xlink:href="#path-5"></use>
            </mask>
            <g id="Clip-28"></g>
            <polygon id="Fill-27" fill="#020302" mask="url(#mask-6)" points="10.2539 60.53475 1.4759 60.53475 25.4809 0.39575 24.4044 0.39575 -0.0001 61.53475 10.9309 61.53475 18.5344 42.51425 17.4569 42.51425"></polygon>
        </g>
    </g>
</svg>